<?xml version="1.0" encoding="utf-8" standalone="no"?>
<!DOCTYPE svg PUBLIC "-//W3C//DTD SVG 1.1//EN"
  "http://www.w3.org/Graphics/SVG/1.1/DTD/svg11.dtd">
<svg xmlns:xlink="http://www.w3.org/1999/xlink" width="515.52pt" height="386.64pt" viewBox="0 0 515.52 386.64" xmlns="http://www.w3.org/2000/svg" version="1.1">
 <metadata>
  <rdf:RDF xmlns:dc="http://purl.org/dc/elements/1.1/" xmlns:cc="http://creativecommons.org/ns#" xmlns:rdf="http://www.w3.org/1999/02/22-rdf-syntax-ns#">
   <cc:Work>
    <dc:type rdf:resource="http://purl.org/dc/dcmitype/StillImage"/>
    <dc:date>2025-02-18T23:46:14.627997</dc:date>
    <dc:format>image/svg+xml</dc:format>
    <dc:creator>
     <cc:Agent>
      <dc:title>Matplotlib v3.10.0, https://matplotlib.org/</dc:title>
     </cc:Agent>
    </dc:creator>
   </cc:Work>
  </rdf:RDF>
 </metadata>
 <defs>
  <style type="text/css">*{stroke-linejoin: round; stroke-linecap: butt}</style>
 </defs>
 <g id="figure_1">
  <g id="patch_1">
   <path d="M 0 386.64 
L 515.52 386.64 
L 515.52 0 
L 0 0 
z
" style="fill: #ffffff"/>
  </g>
  <g id="axes_1">
   <g id="patch_2">
    <path d="M 50.07 343.14 
L 502.56 343.14 
L 502.56 12.96 
L 50.07 12.96 
z
" style="fill: #ffffff"/>
   </g>
   <g id="line2d_1">
    <path d="M 70.637727 278.104545 
L 74.967775 278.104545 
L 79.297823 278.104545 
L 83.627871 278.104545 
L 87.957919 278.104545 
L 92.287967 278.104545 
L 96.618014 278.104545 
L 100.948062 278.104545 
L 105.27811 278.104545 
L 109.608158 278.104545 
L 113.938206 278.104545 
L 118.268254 278.104545 
L 122.598301 278.104545 
L 126.928349 278.104545 
L 131.258397 278.104545 
L 135.588445 278.104545 
L 139.918493 278.104545 
L 144.248541 278.104545 
L 148.578589 278.104545 
L 152.908636 278.104545 
L 157.238684 278.104545 
L 161.568732 278.104545 
L 165.89878 278.104545 
L 170.228828 278.104545 
L 174.558876 278.104545 
L 178.888923 278.104545 
L 183.218971 278.104545 
L 187.549019 278.104545 
L 191.879067 278.104545 
L 196.209115 278.104545 
L 200.539163 278.104545 
L 204.869211 278.104545 
L 209.199258 278.104545 
L 213.529306 278.104545 
L 217.859354 278.104545 
L 222.189402 278.104545 
L 226.51945 278.104545 
L 230.849498 278.104545 
L 235.179545 278.104545 
L 239.509593 278.104545 
L 243.839641 278.104545 
L 248.169689 278.104545 
L 252.499737 278.104545 
L 256.829785 278.104545 
L 261.159833 278.104545 
L 265.48988 276.462052 
L 269.819928 266.865218 
L 274.149976 254.979469 
L 278.480024 240.806619 
L 282.810072 226.224935 
L 287.14012 210.250113 
L 291.470167 194.247149 
L 295.800215 177.018054 
L 300.130263 159.361978 
L 304.460311 140.953913 
L 308.790359 122.644499 
L 313.120407 106.279739 
L 317.450455 92.430058 
L 321.780502 80.680969 
L 326.11055 77.995455 
L 330.440598 77.995455 
L 334.770646 77.995455 
L 339.100694 77.995455 
L 343.430742 77.995455 
L 347.760789 77.995455 
L 352.090837 77.995455 
L 356.420885 77.995455 
L 360.750933 77.995455 
L 365.080981 77.995455 
L 369.411029 77.995455 
L 373.741077 77.995455 
L 378.071124 79.124208 
L 382.401172 83.85247 
L 386.73122 92.178459 
L 391.061268 100.456092 
L 395.391316 102.842103 
L 399.721364 110.835122 
L 404.051411 118.906409 
L 408.381459 126.785579 
L 412.711507 134.754879 
L 417.041555 142.577128 
L 421.371603 150.295016 
L 425.701651 158.264316 
L 430.031699 165.915794 
L 434.361746 173.794964 
L 438.691794 181.569774 
L 443.021842 189.311382 
L 447.35189 197.268819 
L 451.681938 205.055484 
L 456.011986 213.048504 
L 460.342033 221.119791 
L 464.672081 229.065371 
L 469.002129 237.4782 
L 473.332177 245.698912 
L 477.662225 254.213726 
L 481.992273 262.752261 
" clip-path="url(#pd83397cc0a)" style="fill: none; stroke: #1f77b4; stroke-width: 1.5; stroke-linecap: square"/>
   </g>
   <g id="matplotlib.axis_1">
    <g id="xtick_1">
     <g id="line2d_2">
      <path d="M 70.637727 343.14 
L 70.637727 12.96 
" clip-path="url(#pd83397cc0a)" style="fill: none; stroke: #7f7f7f; stroke-opacity: 0.5; stroke-width: 0.5; stroke-linecap: square"/>
     </g>
     <g id="line2d_3">
      <defs>
       <path id="me943cf4d02" d="M 0 0 
L 0 -4 
" style="stroke: #000000; stroke-width: 0.75"/>
      </defs>
      <g>
       <use xlink:href="#me943cf4d02" x="70.637727" y="343.14" style="stroke: #000000; stroke-width: 0.75"/>
      </g>
     </g>
     <g id="line2d_4">
      <defs>
       <path id="made4b4c182" d="M 0 0 
L 0 4 
" style="stroke: #000000; stroke-width: 0.75"/>
      </defs>
      <g>
       <use xlink:href="#made4b4c182" x="70.637727" y="12.96" style="stroke: #000000; stroke-width: 0.75"/>
      </g>
     </g>
     <g id="text_1">
      <!-- 0 -->
      <g transform="translate(67.637727 354.9725) scale(0.12 -0.12)">
       <defs>
        <path id="TimesNewRomanPSMT-30" d="M 231 2094 
Q 231 2819 450 3342 
Q 669 3866 1031 4122 
Q 1313 4325 1613 4325 
Q 2100 4325 2488 3828 
Q 2972 3213 2972 2159 
Q 2972 1422 2759 906 
Q 2547 391 2217 158 
Q 1888 -75 1581 -75 
Q 975 -75 572 641 
Q 231 1244 231 2094 
z
M 844 2016 
Q 844 1141 1059 588 
Q 1238 122 1591 122 
Q 1759 122 1940 273 
Q 2122 425 2216 781 
Q 2359 1319 2359 2297 
Q 2359 3022 2209 3506 
Q 2097 3866 1919 4016 
Q 1791 4119 1609 4119 
Q 1397 4119 1231 3928 
Q 1006 3669 925 3112 
Q 844 2556 844 2016 
z
" transform="scale(0.015625)"/>
       </defs>
       <use xlink:href="#TimesNewRomanPSMT-30"/>
      </g>
     </g>
    </g>
    <g id="xtick_2">
     <g id="line2d_5">
      <path d="M 139.918493 343.14 
L 139.918493 12.96 
" clip-path="url(#pd83397cc0a)" style="fill: none; stroke: #7f7f7f; stroke-opacity: 0.5; stroke-width: 0.5; stroke-linecap: square"/>
     </g>
     <g id="line2d_6">
      <g>
       <use xlink:href="#me943cf4d02" x="139.918493" y="343.14" style="stroke: #000000; stroke-width: 0.75"/>
      </g>
     </g>
     <g id="line2d_7">
      <g>
       <use xlink:href="#made4b4c182" x="139.918493" y="12.96" style="stroke: #000000; stroke-width: 0.75"/>
      </g>
     </g>
     <g id="text_2">
      <!-- 4 -->
      <g transform="translate(136.918493 354.9725) scale(0.12 -0.12)">
       <defs>
        <path id="TimesNewRomanPSMT-34" d="M 2978 1563 
L 2978 1119 
L 2409 1119 
L 2409 0 
L 1894 0 
L 1894 1119 
L 100 1119 
L 100 1519 
L 2066 4325 
L 2409 4325 
L 2409 1563 
L 2978 1563 
z
M 1894 1563 
L 1894 3666 
L 406 1563 
L 1894 1563 
z
" transform="scale(0.015625)"/>
       </defs>
       <use xlink:href="#TimesNewRomanPSMT-34"/>
      </g>
     </g>
    </g>
    <g id="xtick_3">
     <g id="line2d_8">
      <path d="M 209.199258 343.14 
L 209.199258 12.96 
" clip-path="url(#pd83397cc0a)" style="fill: none; stroke: #7f7f7f; stroke-opacity: 0.5; stroke-width: 0.5; stroke-linecap: square"/>
     </g>
     <g id="line2d_9">
      <g>
       <use xlink:href="#me943cf4d02" x="209.199258" y="343.14" style="stroke: #000000; stroke-width: 0.75"/>
      </g>
     </g>
     <g id="line2d_10">
      <g>
       <use xlink:href="#made4b4c182" x="209.199258" y="12.96" style="stroke: #000000; stroke-width: 0.75"/>
      </g>
     </g>
     <g id="text_3">
      <!-- 8 -->
      <g transform="translate(206.199258 354.9725) scale(0.12 -0.12)">
       <defs>
        <path id="TimesNewRomanPSMT-38" d="M 1228 2134 
Q 725 2547 579 2797 
Q 434 3047 434 3316 
Q 434 3728 753 4026 
Q 1072 4325 1600 4325 
Q 2113 4325 2425 4047 
Q 2738 3769 2738 3413 
Q 2738 3175 2569 2928 
Q 2400 2681 1866 2347 
Q 2416 1922 2594 1678 
Q 2831 1359 2831 1006 
Q 2831 559 2490 242 
Q 2150 -75 1597 -75 
Q 994 -75 656 303 
Q 388 606 388 966 
Q 388 1247 577 1523 
Q 766 1800 1228 2134 
z
M 1719 2469 
Q 2094 2806 2194 3001 
Q 2294 3197 2294 3444 
Q 2294 3772 2109 3958 
Q 1925 4144 1606 4144 
Q 1288 4144 1088 3959 
Q 888 3775 888 3528 
Q 888 3366 970 3203 
Q 1053 3041 1206 2894 
L 1719 2469 
z
M 1375 2016 
Q 1116 1797 991 1539 
Q 866 1281 866 981 
Q 866 578 1086 336 
Q 1306 94 1647 94 
Q 1984 94 2187 284 
Q 2391 475 2391 747 
Q 2391 972 2272 1150 
Q 2050 1481 1375 2016 
z
" transform="scale(0.015625)"/>
       </defs>
       <use xlink:href="#TimesNewRomanPSMT-38"/>
      </g>
     </g>
    </g>
    <g id="xtick_4">
     <g id="line2d_11">
      <path d="M 278.480024 343.14 
L 278.480024 12.96 
" clip-path="url(#pd83397cc0a)" style="fill: none; stroke: #7f7f7f; stroke-opacity: 0.5; stroke-width: 0.5; stroke-linecap: square"/>
     </g>
     <g id="line2d_12">
      <g>
       <use xlink:href="#me943cf4d02" x="278.480024" y="343.14" style="stroke: #000000; stroke-width: 0.75"/>
      </g>
     </g>
     <g id="line2d_13">
      <g>
       <use xlink:href="#made4b4c182" x="278.480024" y="12.96" style="stroke: #000000; stroke-width: 0.75"/>
      </g>
     </g>
     <g id="text_4">
      <!-- 12 -->
      <g transform="translate(272.480024 354.9725) scale(0.12 -0.12)">
       <defs>
        <path id="TimesNewRomanPSMT-31" d="M 750 3822 
L 1781 4325 
L 1884 4325 
L 1884 747 
Q 1884 391 1914 303 
Q 1944 216 2037 169 
Q 2131 122 2419 116 
L 2419 0 
L 825 0 
L 825 116 
Q 1125 122 1212 167 
Q 1300 213 1334 289 
Q 1369 366 1369 747 
L 1369 3034 
Q 1369 3497 1338 3628 
Q 1316 3728 1258 3775 
Q 1200 3822 1119 3822 
Q 1003 3822 797 3725 
L 750 3822 
z
" transform="scale(0.015625)"/>
        <path id="TimesNewRomanPSMT-32" d="M 2934 816 
L 2638 0 
L 138 0 
L 138 116 
Q 1241 1122 1691 1759 
Q 2141 2397 2141 2925 
Q 2141 3328 1894 3587 
Q 1647 3847 1303 3847 
Q 991 3847 742 3664 
Q 494 3481 375 3128 
L 259 3128 
Q 338 3706 661 4015 
Q 984 4325 1469 4325 
Q 1984 4325 2329 3994 
Q 2675 3663 2675 3213 
Q 2675 2891 2525 2569 
Q 2294 2063 1775 1497 
Q 997 647 803 472 
L 1909 472 
Q 2247 472 2383 497 
Q 2519 522 2628 598 
Q 2738 675 2819 816 
L 2934 816 
z
" transform="scale(0.015625)"/>
       </defs>
       <use xlink:href="#TimesNewRomanPSMT-31"/>
       <use xlink:href="#TimesNewRomanPSMT-32" transform="translate(50 0)"/>
      </g>
     </g>
    </g>
    <g id="xtick_5">
     <g id="line2d_14">
      <path d="M 347.760789 343.14 
L 347.760789 12.96 
" clip-path="url(#pd83397cc0a)" style="fill: none; stroke: #7f7f7f; stroke-opacity: 0.5; stroke-width: 0.5; stroke-linecap: square"/>
     </g>
     <g id="line2d_15">
      <g>
       <use xlink:href="#me943cf4d02" x="347.760789" y="343.14" style="stroke: #000000; stroke-width: 0.75"/>
      </g>
     </g>
     <g id="line2d_16">
      <g>
       <use xlink:href="#made4b4c182" x="347.760789" y="12.96" style="stroke: #000000; stroke-width: 0.75"/>
      </g>
     </g>
     <g id="text_5">
      <!-- 16 -->
      <g transform="translate(341.760789 354.9725) scale(0.12 -0.12)">
       <defs>
        <path id="TimesNewRomanPSMT-36" d="M 2869 4325 
L 2869 4209 
Q 2456 4169 2195 4045 
Q 1934 3922 1679 3669 
Q 1425 3416 1258 3105 
Q 1091 2794 978 2366 
Q 1428 2675 1881 2675 
Q 2316 2675 2634 2325 
Q 2953 1975 2953 1425 
Q 2953 894 2631 456 
Q 2244 -75 1606 -75 
Q 1172 -75 869 213 
Q 275 772 275 1663 
Q 275 2231 503 2743 
Q 731 3256 1154 3653 
Q 1578 4050 1965 4187 
Q 2353 4325 2688 4325 
L 2869 4325 
z
M 925 2138 
Q 869 1716 869 1456 
Q 869 1156 980 804 
Q 1091 453 1309 247 
Q 1469 100 1697 100 
Q 1969 100 2183 356 
Q 2397 613 2397 1088 
Q 2397 1622 2184 2012 
Q 1972 2403 1581 2403 
Q 1463 2403 1327 2353 
Q 1191 2303 925 2138 
z
" transform="scale(0.015625)"/>
       </defs>
       <use xlink:href="#TimesNewRomanPSMT-31"/>
       <use xlink:href="#TimesNewRomanPSMT-36" transform="translate(50 0)"/>
      </g>
     </g>
    </g>
    <g id="xtick_6">
     <g id="line2d_17">
      <path d="M 417.041555 343.14 
L 417.041555 12.96 
" clip-path="url(#pd83397cc0a)" style="fill: none; stroke: #7f7f7f; stroke-opacity: 0.5; stroke-width: 0.5; stroke-linecap: square"/>
     </g>
     <g id="line2d_18">
      <g>
       <use xlink:href="#me943cf4d02" x="417.041555" y="343.14" style="stroke: #000000; stroke-width: 0.75"/>
      </g>
     </g>
     <g id="line2d_19">
      <g>
       <use xlink:href="#made4b4c182" x="417.041555" y="12.96" style="stroke: #000000; stroke-width: 0.75"/>
      </g>
     </g>
     <g id="text_6">
      <!-- 20 -->
      <g transform="translate(411.041555 354.9725) scale(0.12 -0.12)">
       <use xlink:href="#TimesNewRomanPSMT-32"/>
       <use xlink:href="#TimesNewRomanPSMT-30" transform="translate(50 0)"/>
      </g>
     </g>
    </g>
    <g id="xtick_7">
     <g id="line2d_20">
      <path d="M 486.322321 343.14 
L 486.322321 12.96 
" clip-path="url(#pd83397cc0a)" style="fill: none; stroke: #7f7f7f; stroke-opacity: 0.5; stroke-width: 0.5; stroke-linecap: square"/>
     </g>
     <g id="line2d_21">
      <g>
       <use xlink:href="#me943cf4d02" x="486.322321" y="343.14" style="stroke: #000000; stroke-width: 0.75"/>
      </g>
     </g>
     <g id="line2d_22">
      <g>
       <use xlink:href="#made4b4c182" x="486.322321" y="12.96" style="stroke: #000000; stroke-width: 0.75"/>
      </g>
     </g>
     <g id="text_7">
      <!-- 24 -->
      <g transform="translate(480.322321 354.9725) scale(0.12 -0.12)">
       <use xlink:href="#TimesNewRomanPSMT-32"/>
       <use xlink:href="#TimesNewRomanPSMT-34" transform="translate(50 0)"/>
      </g>
     </g>
    </g>
    <g id="text_8">
     <!-- Time [h] -->
     <g transform="translate(255.3675 369.871875) scale(0.12 -0.12)">
      <defs>
       <path id="TimesNewRomanPSMT-54" d="M 3703 4238 
L 3750 3244 
L 3631 3244 
Q 3597 3506 3538 3619 
Q 3441 3800 3280 3886 
Q 3119 3972 2856 3972 
L 2259 3972 
L 2259 734 
Q 2259 344 2344 247 
Q 2463 116 2709 116 
L 2856 116 
L 2856 0 
L 1059 0 
L 1059 116 
L 1209 116 
Q 1478 116 1591 278 
Q 1659 378 1659 734 
L 1659 3972 
L 1150 3972 
Q 853 3972 728 3928 
Q 566 3869 450 3700 
Q 334 3531 313 3244 
L 194 3244 
L 244 4238 
L 3703 4238 
z
" transform="scale(0.015625)"/>
       <path id="TimesNewRomanPSMT-69" d="M 928 4444 
Q 1059 4444 1151 4351 
Q 1244 4259 1244 4128 
Q 1244 3997 1151 3903 
Q 1059 3809 928 3809 
Q 797 3809 703 3903 
Q 609 3997 609 4128 
Q 609 4259 701 4351 
Q 794 4444 928 4444 
z
M 1188 2947 
L 1188 647 
Q 1188 378 1227 289 
Q 1266 200 1342 156 
Q 1419 113 1622 113 
L 1622 0 
L 231 0 
L 231 113 
Q 441 113 512 153 
Q 584 194 626 287 
Q 669 381 669 647 
L 669 1750 
Q 669 2216 641 2353 
Q 619 2453 572 2492 
Q 525 2531 444 2531 
Q 356 2531 231 2484 
L 188 2597 
L 1050 2947 
L 1188 2947 
z
" transform="scale(0.015625)"/>
       <path id="TimesNewRomanPSMT-6d" d="M 1050 2338 
Q 1363 2650 1419 2697 
Q 1559 2816 1721 2881 
Q 1884 2947 2044 2947 
Q 2313 2947 2506 2790 
Q 2700 2634 2766 2338 
Q 3088 2713 3309 2830 
Q 3531 2947 3766 2947 
Q 3994 2947 4170 2830 
Q 4347 2713 4450 2447 
Q 4519 2266 4519 1878 
L 4519 647 
Q 4519 378 4559 278 
Q 4591 209 4675 161 
Q 4759 113 4950 113 
L 4950 0 
L 3538 0 
L 3538 113 
L 3597 113 
Q 3781 113 3884 184 
Q 3956 234 3988 344 
Q 4000 397 4000 647 
L 4000 1878 
Q 4000 2228 3916 2372 
Q 3794 2572 3525 2572 
Q 3359 2572 3192 2489 
Q 3025 2406 2788 2181 
L 2781 2147 
L 2788 2013 
L 2788 647 
Q 2788 353 2820 281 
Q 2853 209 2943 161 
Q 3034 113 3253 113 
L 3253 0 
L 1806 0 
L 1806 113 
Q 2044 113 2133 169 
Q 2222 225 2256 338 
Q 2272 391 2272 647 
L 2272 1878 
Q 2272 2228 2169 2381 
Q 2031 2581 1784 2581 
Q 1616 2581 1450 2491 
Q 1191 2353 1050 2181 
L 1050 647 
Q 1050 366 1089 281 
Q 1128 197 1204 155 
Q 1281 113 1516 113 
L 1516 0 
L 100 0 
L 100 113 
Q 297 113 375 155 
Q 453 197 493 289 
Q 534 381 534 647 
L 534 1741 
Q 534 2213 506 2350 
Q 484 2453 437 2492 
Q 391 2531 309 2531 
Q 222 2531 100 2484 
L 53 2597 
L 916 2947 
L 1050 2947 
L 1050 2338 
z
" transform="scale(0.015625)"/>
       <path id="TimesNewRomanPSMT-65" d="M 681 1784 
Q 678 1147 991 784 
Q 1303 422 1725 422 
Q 2006 422 2214 576 
Q 2422 731 2563 1106 
L 2659 1044 
Q 2594 616 2278 264 
Q 1963 -88 1488 -88 
Q 972 -88 605 314 
Q 238 716 238 1394 
Q 238 2128 614 2539 
Q 991 2950 1559 2950 
Q 2041 2950 2350 2633 
Q 2659 2316 2659 1784 
L 681 1784 
z
M 681 1966 
L 2006 1966 
Q 1991 2241 1941 2353 
Q 1863 2528 1708 2628 
Q 1553 2728 1384 2728 
Q 1125 2728 920 2526 
Q 716 2325 681 1966 
z
" transform="scale(0.015625)"/>
       <path id="TimesNewRomanPSMT-20" transform="scale(0.015625)"/>
       <path id="TimesNewRomanPSMT-5b" d="M 1900 -1269 
L 525 -1269 
L 525 4334 
L 1900 4334 
L 1900 4088 
L 994 4088 
L 994 -1025 
L 1900 -1025 
L 1900 -1269 
z
" transform="scale(0.015625)"/>
       <path id="TimesNewRomanPSMT-68" d="M 1041 4444 
L 1041 2350 
Q 1388 2731 1591 2839 
Q 1794 2947 1997 2947 
Q 2241 2947 2416 2812 
Q 2591 2678 2675 2391 
Q 2734 2191 2734 1659 
L 2734 647 
Q 2734 375 2778 275 
Q 2809 200 2884 156 
Q 2959 113 3159 113 
L 3159 0 
L 1753 0 
L 1753 113 
L 1819 113 
Q 2019 113 2097 173 
Q 2175 234 2206 353 
Q 2216 403 2216 647 
L 2216 1659 
Q 2216 2128 2167 2275 
Q 2119 2422 2012 2495 
Q 1906 2569 1756 2569 
Q 1603 2569 1437 2487 
Q 1272 2406 1041 2159 
L 1041 647 
Q 1041 353 1073 281 
Q 1106 209 1195 161 
Q 1284 113 1503 113 
L 1503 0 
L 84 0 
L 84 113 
Q 275 113 384 172 
Q 447 203 484 290 
Q 522 378 522 647 
L 522 3238 
Q 522 3728 498 3840 
Q 475 3953 426 3993 
Q 378 4034 297 4034 
Q 231 4034 84 3984 
L 41 4094 
L 897 4444 
L 1041 4444 
z
" transform="scale(0.015625)"/>
       <path id="TimesNewRomanPSMT-5d" d="M 234 4334 
L 1609 4334 
L 1609 -1272 
L 234 -1272 
L 234 -1025 
L 1141 -1025 
L 1141 4088 
L 234 4088 
L 234 4334 
z
" transform="scale(0.015625)"/>
      </defs>
      <use xlink:href="#TimesNewRomanPSMT-54"/>
      <use xlink:href="#TimesNewRomanPSMT-69" transform="translate(57.583984 0)"/>
      <use xlink:href="#TimesNewRomanPSMT-6d" transform="translate(85.367188 0)"/>
      <use xlink:href="#TimesNewRomanPSMT-65" transform="translate(163.150391 0)"/>
      <use xlink:href="#TimesNewRomanPSMT-20" transform="translate(207.535156 0)"/>
      <use xlink:href="#TimesNewRomanPSMT-5b" transform="translate(232.535156 0)"/>
      <use xlink:href="#TimesNewRomanPSMT-68" transform="translate(265.835938 0)"/>
      <use xlink:href="#TimesNewRomanPSMT-5d" transform="translate(315.835938 0)"/>
     </g>
    </g>
   </g>
   <g id="matplotlib.axis_2">
    <g id="ytick_1">
     <g id="line2d_23">
      <path d="M 50.07 339.954842 
L 502.56 339.954842 
" clip-path="url(#pd83397cc0a)" style="fill: none; stroke: #7f7f7f; stroke-opacity: 0.5; stroke-width: 0.5; stroke-linecap: square"/>
     </g>
     <g id="line2d_24">
      <defs>
       <path id="m5578204668" d="M 0 0 
L 4 0 
" style="stroke: #000000; stroke-width: 0.75"/>
      </defs>
      <g>
       <use xlink:href="#m5578204668" x="50.07" y="339.954842" style="stroke: #000000; stroke-width: 0.75"/>
      </g>
     </g>
     <g id="line2d_25">
      <defs>
       <path id="m1deb7773ed" d="M 0 0 
L -4 0 
" style="stroke: #000000; stroke-width: 0.75"/>
      </defs>
      <g>
       <use xlink:href="#m1deb7773ed" x="502.56" y="339.954842" style="stroke: #000000; stroke-width: 0.75"/>
      </g>
     </g>
     <g id="text_9">
      <!-- 100 -->
      <g transform="translate(28.57 344.121092) scale(0.12 -0.12)">
       <use xlink:href="#TimesNewRomanPSMT-31"/>
       <use xlink:href="#TimesNewRomanPSMT-30" transform="translate(50 0)"/>
       <use xlink:href="#TimesNewRomanPSMT-30" transform="translate(100 0)"/>
      </g>
     </g>
    </g>
    <g id="ytick_2">
     <g id="line2d_26">
      <path d="M 50.07 295.839081 
L 502.56 295.839081 
" clip-path="url(#pd83397cc0a)" style="fill: none; stroke: #7f7f7f; stroke-opacity: 0.5; stroke-width: 0.5; stroke-linecap: square"/>
     </g>
     <g id="line2d_27">
      <g>
       <use xlink:href="#m5578204668" x="50.07" y="295.839081" style="stroke: #000000; stroke-width: 0.75"/>
      </g>
     </g>
     <g id="line2d_28">
      <g>
       <use xlink:href="#m1deb7773ed" x="502.56" y="295.839081" style="stroke: #000000; stroke-width: 0.75"/>
      </g>
     </g>
     <g id="text_10">
      <!-- 150 -->
      <g transform="translate(28.57 300.005331) scale(0.12 -0.12)">
       <defs>
        <path id="TimesNewRomanPSMT-35" d="M 2778 4238 
L 2534 3706 
L 1259 3706 
L 981 3138 
Q 1809 3016 2294 2522 
Q 2709 2097 2709 1522 
Q 2709 1188 2573 903 
Q 2438 619 2231 419 
Q 2025 219 1772 97 
Q 1413 -75 1034 -75 
Q 653 -75 479 54 
Q 306 184 306 341 
Q 306 428 378 495 
Q 450 563 559 563 
Q 641 563 702 538 
Q 763 513 909 409 
Q 1144 247 1384 247 
Q 1750 247 2026 523 
Q 2303 800 2303 1197 
Q 2303 1581 2056 1914 
Q 1809 2247 1375 2428 
Q 1034 2569 447 2591 
L 1259 4238 
L 2778 4238 
z
" transform="scale(0.015625)"/>
       </defs>
       <use xlink:href="#TimesNewRomanPSMT-31"/>
       <use xlink:href="#TimesNewRomanPSMT-35" transform="translate(50 0)"/>
       <use xlink:href="#TimesNewRomanPSMT-30" transform="translate(100 0)"/>
      </g>
     </g>
    </g>
    <g id="ytick_3">
     <g id="line2d_29">
      <path d="M 50.07 251.723321 
L 502.56 251.723321 
" clip-path="url(#pd83397cc0a)" style="fill: none; stroke: #7f7f7f; stroke-opacity: 0.5; stroke-width: 0.5; stroke-linecap: square"/>
     </g>
     <g id="line2d_30">
      <g>
       <use xlink:href="#m5578204668" x="50.07" y="251.723321" style="stroke: #000000; stroke-width: 0.75"/>
      </g>
     </g>
     <g id="line2d_31">
      <g>
       <use xlink:href="#m1deb7773ed" x="502.56" y="251.723321" style="stroke: #000000; stroke-width: 0.75"/>
      </g>
     </g>
     <g id="text_11">
      <!-- 200 -->
      <g transform="translate(28.57 255.889571) scale(0.12 -0.12)">
       <use xlink:href="#TimesNewRomanPSMT-32"/>
       <use xlink:href="#TimesNewRomanPSMT-30" transform="translate(50 0)"/>
       <use xlink:href="#TimesNewRomanPSMT-30" transform="translate(100 0)"/>
      </g>
     </g>
    </g>
    <g id="ytick_4">
     <g id="line2d_32">
      <path d="M 50.07 207.60756 
L 502.56 207.60756 
" clip-path="url(#pd83397cc0a)" style="fill: none; stroke: #7f7f7f; stroke-opacity: 0.5; stroke-width: 0.5; stroke-linecap: square"/>
     </g>
     <g id="line2d_33">
      <g>
       <use xlink:href="#m5578204668" x="50.07" y="207.60756" style="stroke: #000000; stroke-width: 0.75"/>
      </g>
     </g>
     <g id="line2d_34">
      <g>
       <use xlink:href="#m1deb7773ed" x="502.56" y="207.60756" style="stroke: #000000; stroke-width: 0.75"/>
      </g>
     </g>
     <g id="text_12">
      <!-- 250 -->
      <g transform="translate(28.57 211.77381) scale(0.12 -0.12)">
       <use xlink:href="#TimesNewRomanPSMT-32"/>
       <use xlink:href="#TimesNewRomanPSMT-35" transform="translate(50 0)"/>
       <use xlink:href="#TimesNewRomanPSMT-30" transform="translate(100 0)"/>
      </g>
     </g>
    </g>
    <g id="ytick_5">
     <g id="line2d_35">
      <path d="M 50.07 163.491799 
L 502.56 163.491799 
" clip-path="url(#pd83397cc0a)" style="fill: none; stroke: #7f7f7f; stroke-opacity: 0.5; stroke-width: 0.5; stroke-linecap: square"/>
     </g>
     <g id="line2d_36">
      <g>
       <use xlink:href="#m5578204668" x="50.07" y="163.491799" style="stroke: #000000; stroke-width: 0.75"/>
      </g>
     </g>
     <g id="line2d_37">
      <g>
       <use xlink:href="#m1deb7773ed" x="502.56" y="163.491799" style="stroke: #000000; stroke-width: 0.75"/>
      </g>
     </g>
     <g id="text_13">
      <!-- 300 -->
      <g transform="translate(28.57 167.658049) scale(0.12 -0.12)">
       <defs>
        <path id="TimesNewRomanPSMT-33" d="M 325 3431 
Q 506 3859 782 4092 
Q 1059 4325 1472 4325 
Q 1981 4325 2253 3994 
Q 2459 3747 2459 3466 
Q 2459 3003 1878 2509 
Q 2269 2356 2469 2072 
Q 2669 1788 2669 1403 
Q 2669 853 2319 450 
Q 1863 -75 997 -75 
Q 569 -75 414 31 
Q 259 138 259 259 
Q 259 350 332 419 
Q 406 488 509 488 
Q 588 488 669 463 
Q 722 447 909 348 
Q 1097 250 1169 231 
Q 1284 197 1416 197 
Q 1734 197 1970 444 
Q 2206 691 2206 1028 
Q 2206 1275 2097 1509 
Q 2016 1684 1919 1775 
Q 1784 1900 1550 2001 
Q 1316 2103 1072 2103 
L 972 2103 
L 972 2197 
Q 1219 2228 1467 2375 
Q 1716 2522 1828 2728 
Q 1941 2934 1941 3181 
Q 1941 3503 1739 3701 
Q 1538 3900 1238 3900 
Q 753 3900 428 3381 
L 325 3431 
z
" transform="scale(0.015625)"/>
       </defs>
       <use xlink:href="#TimesNewRomanPSMT-33"/>
       <use xlink:href="#TimesNewRomanPSMT-30" transform="translate(50 0)"/>
       <use xlink:href="#TimesNewRomanPSMT-30" transform="translate(100 0)"/>
      </g>
     </g>
    </g>
    <g id="ytick_6">
     <g id="line2d_38">
      <path d="M 50.07 119.376038 
L 502.56 119.376038 
" clip-path="url(#pd83397cc0a)" style="fill: none; stroke: #7f7f7f; stroke-opacity: 0.5; stroke-width: 0.5; stroke-linecap: square"/>
     </g>
     <g id="line2d_39">
      <g>
       <use xlink:href="#m5578204668" x="50.07" y="119.376038" style="stroke: #000000; stroke-width: 0.75"/>
      </g>
     </g>
     <g id="line2d_40">
      <g>
       <use xlink:href="#m1deb7773ed" x="502.56" y="119.376038" style="stroke: #000000; stroke-width: 0.75"/>
      </g>
     </g>
     <g id="text_14">
      <!-- 350 -->
      <g transform="translate(28.57 123.542288) scale(0.12 -0.12)">
       <use xlink:href="#TimesNewRomanPSMT-33"/>
       <use xlink:href="#TimesNewRomanPSMT-35" transform="translate(50 0)"/>
       <use xlink:href="#TimesNewRomanPSMT-30" transform="translate(100 0)"/>
      </g>
     </g>
    </g>
    <g id="ytick_7">
     <g id="line2d_41">
      <path d="M 50.07 75.260277 
L 502.56 75.260277 
" clip-path="url(#pd83397cc0a)" style="fill: none; stroke: #7f7f7f; stroke-opacity: 0.5; stroke-width: 0.5; stroke-linecap: square"/>
     </g>
     <g id="line2d_42">
      <g>
       <use xlink:href="#m5578204668" x="50.07" y="75.260277" style="stroke: #000000; stroke-width: 0.75"/>
      </g>
     </g>
     <g id="line2d_43">
      <g>
       <use xlink:href="#m1deb7773ed" x="502.56" y="75.260277" style="stroke: #000000; stroke-width: 0.75"/>
      </g>
     </g>
     <g id="text_15">
      <!-- 400 -->
      <g transform="translate(28.57 79.426527) scale(0.12 -0.12)">
       <use xlink:href="#TimesNewRomanPSMT-34"/>
       <use xlink:href="#TimesNewRomanPSMT-30" transform="translate(50 0)"/>
       <use xlink:href="#TimesNewRomanPSMT-30" transform="translate(100 0)"/>
      </g>
     </g>
    </g>
    <g id="ytick_8">
     <g id="line2d_44">
      <path d="M 50.07 31.144517 
L 502.56 31.144517 
" clip-path="url(#pd83397cc0a)" style="fill: none; stroke: #7f7f7f; stroke-opacity: 0.5; stroke-width: 0.5; stroke-linecap: square"/>
     </g>
     <g id="line2d_45">
      <g>
       <use xlink:href="#m5578204668" x="50.07" y="31.144517" style="stroke: #000000; stroke-width: 0.75"/>
      </g>
     </g>
     <g id="line2d_46">
      <g>
       <use xlink:href="#m1deb7773ed" x="502.56" y="31.144517" style="stroke: #000000; stroke-width: 0.75"/>
      </g>
     </g>
     <g id="text_16">
      <!-- 450 -->
      <g transform="translate(28.57 35.310767) scale(0.12 -0.12)">
       <use xlink:href="#TimesNewRomanPSMT-34"/>
       <use xlink:href="#TimesNewRomanPSMT-35" transform="translate(50 0)"/>
       <use xlink:href="#TimesNewRomanPSMT-30" transform="translate(100 0)"/>
      </g>
     </g>
    </g>
    <g id="text_17">
     <!-- SOC [kWh] -->
     <g transform="translate(22.003125 206.880938) rotate(-90) scale(0.12 -0.12)">
      <defs>
       <path id="TimesNewRomanPSMT-53" d="M 2934 4334 
L 2934 2869 
L 2819 2869 
Q 2763 3291 2617 3541 
Q 2472 3791 2203 3937 
Q 1934 4084 1647 4084 
Q 1322 4084 1109 3886 
Q 897 3688 897 3434 
Q 897 3241 1031 3081 
Q 1225 2847 1953 2456 
Q 2547 2138 2764 1967 
Q 2981 1797 3098 1565 
Q 3216 1334 3216 1081 
Q 3216 600 2842 251 
Q 2469 -97 1881 -97 
Q 1697 -97 1534 -69 
Q 1438 -53 1133 45 
Q 828 144 747 144 
Q 669 144 623 97 
Q 578 50 556 -97 
L 441 -97 
L 441 1356 
L 556 1356 
Q 638 900 775 673 
Q 913 447 1195 297 
Q 1478 147 1816 147 
Q 2206 147 2432 353 
Q 2659 559 2659 841 
Q 2659 997 2573 1156 
Q 2488 1316 2306 1453 
Q 2184 1547 1640 1851 
Q 1097 2156 867 2337 
Q 638 2519 519 2737 
Q 400 2956 400 3219 
Q 400 3675 750 4004 
Q 1100 4334 1641 4334 
Q 1978 4334 2356 4169 
Q 2531 4091 2603 4091 
Q 2684 4091 2736 4139 
Q 2788 4188 2819 4334 
L 2934 4334 
z
" transform="scale(0.015625)"/>
       <path id="TimesNewRomanPSMT-4f" d="M 2341 4334 
Q 3166 4334 3770 3707 
Q 4375 3081 4375 2144 
Q 4375 1178 3765 540 
Q 3156 -97 2291 -97 
Q 1416 -97 820 525 
Q 225 1147 225 2134 
Q 225 3144 913 3781 
Q 1509 4334 2341 4334 
z
M 2281 4106 
Q 1713 4106 1369 3684 
Q 941 3159 941 2147 
Q 941 1109 1384 550 
Q 1725 125 2284 125 
Q 2881 125 3270 590 
Q 3659 1056 3659 2059 
Q 3659 3147 3231 3681 
Q 2888 4106 2281 4106 
z
" transform="scale(0.015625)"/>
       <path id="TimesNewRomanPSMT-43" d="M 3853 4334 
L 3950 2894 
L 3853 2894 
Q 3659 3541 3300 3825 
Q 2941 4109 2438 4109 
Q 2016 4109 1675 3895 
Q 1334 3681 1139 3212 
Q 944 2744 944 2047 
Q 944 1472 1128 1050 
Q 1313 628 1683 403 
Q 2053 178 2528 178 
Q 2941 178 3256 354 
Q 3572 531 3950 1056 
L 4047 994 
Q 3728 428 3303 165 
Q 2878 -97 2294 -97 
Q 1241 -97 663 684 
Q 231 1266 231 2053 
Q 231 2688 515 3219 
Q 800 3750 1298 4042 
Q 1797 4334 2388 4334 
Q 2847 4334 3294 4109 
Q 3425 4041 3481 4041 
Q 3566 4041 3628 4100 
Q 3709 4184 3744 4334 
L 3853 4334 
z
" transform="scale(0.015625)"/>
       <path id="TimesNewRomanPSMT-6b" d="M 1047 4444 
L 1047 1597 
L 1775 2259 
Q 2006 2472 2044 2528 
Q 2069 2566 2069 2603 
Q 2069 2666 2017 2711 
Q 1966 2756 1847 2763 
L 1847 2863 
L 3091 2863 
L 3091 2763 
Q 2834 2756 2664 2684 
Q 2494 2613 2291 2428 
L 1556 1750 
L 2291 822 
Q 2597 438 2703 334 
Q 2853 188 2966 144 
Q 3044 113 3238 113 
L 3238 0 
L 1847 0 
L 1847 113 
Q 1966 116 2008 148 
Q 2050 181 2050 241 
Q 2050 313 1925 472 
L 1047 1594 
L 1047 644 
Q 1047 366 1086 278 
Q 1125 191 1197 153 
Q 1269 116 1509 113 
L 1509 0 
L 53 0 
L 53 113 
Q 272 113 381 166 
Q 447 200 481 272 
Q 528 375 528 628 
L 528 3234 
Q 528 3731 506 3842 
Q 484 3953 434 3995 
Q 384 4038 303 4038 
Q 238 4038 106 3984 
L 53 4094 
L 903 4444 
L 1047 4444 
z
" transform="scale(0.015625)"/>
       <path id="TimesNewRomanPSMT-57" d="M 5991 4238 
L 5991 4122 
Q 5825 4122 5722 4062 
Q 5619 4003 5525 3841 
Q 5463 3731 5328 3319 
L 4147 -97 
L 4022 -97 
L 3056 2613 
L 2097 -97 
L 1984 -97 
L 725 3422 
Q 584 3816 547 3888 
Q 484 4006 376 4064 
Q 269 4122 84 4122 
L 84 4238 
L 1653 4238 
L 1653 4122 
L 1578 4122 
Q 1413 4122 1325 4047 
Q 1238 3972 1238 3866 
Q 1238 3756 1375 3363 
L 2209 984 
L 2913 3006 
L 2788 3363 
L 2688 3647 
Q 2622 3803 2541 3922 
Q 2500 3981 2441 4022 
Q 2363 4078 2284 4103 
Q 2225 4122 2097 4122 
L 2097 4238 
L 3747 4238 
L 3747 4122 
L 3634 4122 
Q 3459 4122 3378 4047 
Q 3297 3972 3297 3844 
Q 3297 3684 3438 3288 
L 4250 984 
L 5056 3319 
Q 5194 3706 5194 3856 
Q 5194 3928 5148 3990 
Q 5103 4053 5034 4078 
Q 4916 4122 4725 4122 
L 4725 4238 
L 5991 4238 
z
" transform="scale(0.015625)"/>
      </defs>
      <use xlink:href="#TimesNewRomanPSMT-53"/>
      <use xlink:href="#TimesNewRomanPSMT-4f" transform="translate(55.615234 0)"/>
      <use xlink:href="#TimesNewRomanPSMT-43" transform="translate(127.832031 0)"/>
      <use xlink:href="#TimesNewRomanPSMT-20" transform="translate(194.53125 0)"/>
      <use xlink:href="#TimesNewRomanPSMT-5b" transform="translate(219.53125 0)"/>
      <use xlink:href="#TimesNewRomanPSMT-6b" transform="translate(252.832031 0)"/>
      <use xlink:href="#TimesNewRomanPSMT-57" transform="translate(302.832031 0)"/>
      <use xlink:href="#TimesNewRomanPSMT-68" transform="translate(397.216797 0)"/>
      <use xlink:href="#TimesNewRomanPSMT-5d" transform="translate(447.216797 0)"/>
     </g>
    </g>
   </g>
   <g id="line2d_47">
    <path d="M 70.637727 262.752261 
L 74.967775 262.752261 
L 79.297823 262.752261 
L 83.627871 262.752261 
L 87.957919 262.752261 
L 92.287967 270.966611 
L 96.618014 270.966611 
L 100.948062 270.966611 
L 105.27811 270.966611 
L 109.608158 270.966611 
L 113.938206 275.572421 
L 118.268254 283.854628 
L 122.598301 283.854628 
L 126.928349 283.854628 
L 131.258397 283.854628 
L 135.588445 283.854628 
L 139.918493 283.854628 
L 144.248541 283.854628 
L 148.578589 283.854628 
L 152.908636 283.854628 
L 157.238684 283.854628 
L 161.568732 283.854628 
L 165.89878 283.854628 
L 170.228828 291.785886 
L 174.558876 299.653226 
L 178.888923 299.653226 
L 183.218971 299.653226 
L 187.549019 292.866967 
L 191.879067 292.866967 
L 196.209115 301.59015 
L 200.539163 301.59015 
L 204.869211 304.30467 
L 209.199258 304.982655 
L 213.529306 308.235794 
L 217.859354 313.125277 
L 222.189402 313.125277 
L 226.51945 328.131818 
L 230.849498 328.131818 
L 235.179545 328.131818 
L 239.509593 328.131818 
L 243.839641 328.131818 
L 248.169689 328.131818 
L 252.499737 328.131818 
L 256.829785 328.131818 
L 261.159833 328.131818 
L 265.48988 326.489324 
L 269.819928 316.892491 
L 274.149976 305.006742 
L 278.480024 290.833892 
L 282.810072 276.252208 
L 287.14012 260.277386 
L 291.470167 244.274422 
L 295.800215 227.045326 
L 300.130263 208.501302 
L 304.460311 157.002137 
L 308.790359 105.7694 
L 313.120407 56.252467 
L 317.450455 42.402785 
L 321.780502 30.653696 
L 326.11055 27.968182 
L 330.440598 27.968182 
L 334.770646 27.968182 
L 339.100694 27.968182 
L 343.430742 27.968182 
L 347.760789 27.968182 
L 352.090837 29.471826 
L 356.420885 29.471826 
L 360.750933 29.471826 
L 365.080981 29.849336 
L 369.411029 30.972686 
L 373.741077 38.955166 
L 378.071124 40.083919 
L 382.401172 44.812181 
L 386.73122 53.13817 
L 391.061268 61.415804 
L 395.391316 63.801814 
L 399.721364 71.794834 
L 404.051411 91.89436 
L 408.381459 99.77353 
L 412.711507 107.742831 
L 417.041555 115.565079 
L 421.371603 123.282968 
L 425.701651 141.512213 
L 430.031699 149.163691 
L 434.361746 157.042861 
L 438.691794 164.817671 
L 443.021842 181.59975 
L 447.35189 189.557187 
L 451.681938 205.055484 
L 456.011986 213.048504 
L 460.342033 221.119791 
L 464.672081 229.065371 
L 469.002129 237.4782 
L 473.332177 245.698912 
L 477.662225 254.213726 
L 481.992273 262.752261 
" clip-path="url(#pd83397cc0a)" style="fill: none; stroke-dasharray: 5.55,2.4; stroke-dashoffset: 0; stroke: #ff7f0e; stroke-width: 1.5"/>
   </g>
   <g id="patch_3">
    <path d="M 50.07 343.14 
L 50.07 12.96 
" style="fill: none; stroke: #000000; stroke-linejoin: miter; stroke-linecap: square"/>
   </g>
   <g id="patch_4">
    <path d="M 502.56 343.14 
L 502.56 12.96 
" style="fill: none; stroke: #000000; stroke-linejoin: miter; stroke-linecap: square"/>
   </g>
   <g id="patch_5">
    <path d="M 50.07 343.14 
L 502.56 343.14 
" style="fill: none; stroke: #000000; stroke-linejoin: miter; stroke-linecap: square"/>
   </g>
   <g id="patch_6">
    <path d="M 50.07 12.96 
L 502.56 12.96 
" style="fill: none; stroke: #000000; stroke-linejoin: miter; stroke-linecap: square"/>
   </g>
   <g id="legend_1">
    <g id="patch_7">
     <path d="M 445.56 56.49375 
L 496.56 56.49375 
L 496.56 18.96 
L 445.56 18.96 
z
" style="fill: #ffffff; opacity: 0.8; stroke: #000000; stroke-linejoin: miter"/>
    </g>
    <g id="line2d_48">
     <path d="M 450.36 27.96 
L 462.36 27.96 
L 474.36 27.96 
" style="fill: none; stroke: #1f77b4; stroke-width: 1.5; stroke-linecap: square"/>
    </g>
    <g id="text_18">
     <!-- $ s_{t} $ -->
     <g transform="translate(483.96 32.16) scale(0.12 -0.12)">
      <defs>
       <path id="STIXGeneral-Italic-73" d="M 2342 2829 
L 2214 1933 
L 2112 1933 
Q 2022 2675 1542 2675 
Q 1370 2675 1267 2579 
Q 1165 2483 1165 2310 
Q 1165 2067 1510 1658 
Q 1946 1152 1946 787 
Q 1946 397 1686 163 
Q 1427 -70 1024 -70 
Q 838 -70 672 -6 
Q 538 51 390 51 
Q 262 51 205 -83 
L 102 -83 
L 230 934 
L 333 934 
Q 461 64 973 64 
Q 1203 64 1331 192 
Q 1459 320 1459 557 
Q 1459 845 1101 1293 
Q 698 1798 698 2131 
Q 698 2451 909 2636 
Q 1120 2822 1472 2822 
Q 1600 2822 1830 2758 
Q 1971 2714 2061 2714 
Q 2189 2714 2253 2829 
L 2342 2829 
z
" transform="scale(0.015625)"/>
       <path id="STIXGeneral-Italic-74" d="M 1894 2739 
L 1862 2534 
L 1325 2534 
L 768 435 
Q 755 384 755 346 
Q 755 243 851 243 
Q 928 243 1030 342 
Q 1133 442 1370 749 
L 1453 704 
Q 1158 256 969 93 
Q 781 -70 538 -70 
Q 243 -70 243 166 
Q 243 230 346 640 
L 845 2534 
L 365 2534 
L 358 2573 
Q 358 2688 570 2733 
Q 730 2771 992 2979 
Q 1254 3187 1421 3437 
Q 1459 3494 1510 3494 
Q 1568 3494 1568 3443 
Q 1568 3411 1562 3398 
L 1382 2739 
L 1894 2739 
z
" transform="scale(0.015625)"/>
      </defs>
      <use xlink:href="#STIXGeneral-Italic-73" transform="translate(0 0.796875)"/>
      <use xlink:href="#STIXGeneral-Italic-74" transform="translate(38.899994 -12.43125) scale(0.7)"/>
     </g>
    </g>
    <g id="line2d_49">
     <path d="M 450.36 44.926875 
L 462.36 44.926875 
L 474.36 44.926875 
" style="fill: none; stroke-dasharray: 5.55,2.4; stroke-dashoffset: 0; stroke: #ff7f0e; stroke-width: 1.5"/>
    </g>
    <g id="text_19">
     <!-- $ \hat{s}_t $ -->
     <g transform="translate(483.96 49.126875) scale(0.12 -0.12)">
      <defs>
       <path id="STIXGeneral-Regular-302" d="M -480 3245 
L -698 3245 
L -1478 3904 
L -2253 3245 
L -2470 3245 
L -1677 4314 
L -1280 4314 
L -480 3245 
z
" transform="scale(0.015625)"/>
      </defs>
      <use xlink:href="#STIXGeneral-Regular-302" transform="translate(47.318748 6.59375)"/>
      <use xlink:href="#STIXGeneral-Italic-73" transform="translate(0 0.59375)"/>
      <use xlink:href="#STIXGeneral-Italic-74" transform="translate(40.443275 -12.634375) scale(0.7)"/>
     </g>
    </g>
   </g>
  </g>
 </g>
 <defs>
  <clipPath id="pd83397cc0a">
   <rect x="50.07" y="12.96" width="452.49" height="330.18"/>
  </clipPath>
 </defs>
</svg>
